<?xml version="1.0" encoding="UTF-8"?>
<svg id="Calque_2" data-name="Calque 2" xmlns="http://www.w3.org/2000/svg" viewBox="0 0 300 300">
  <defs>
    <style>
      .cls-1 {
        fill: none;
      }

      .cls-2 {
        fill: #f2f2f2;
      }
    </style>
  </defs>
  <g id="Calque_6" data-name="Calque 6">
    <g>
      <path class="cls-2" d="M252.75,59.47v95.75c-2.23,6.69-6.97,11.37-14.23,12.01-20.92,1.86-44.5-1.37-65.69,0-7.92-.82-13.61-6.64-14.25-14.6l.02-90.95c.65-7.3,5.5-12.34,12.41-14.23h69.31c3.25.82,5.84,2.25,7.88,4.27.25.25.5.51.74.78.24.27.47.55.69.83.22.29.43.59.63.89s.4.62.59.94c.37.65.72,1.33,1.04,2.05.16.36.31.72.45,1.1.14.37.28.76.41,1.15Z"/>
      <path class="cls-2" d="M141.78,101.74c-.71,7.67-6.55,13.52-14.22,14.22-20.61,1.89-44.01-1.42-64.92.02-7.72-.26-14.35-6.05-15.02-13.82-1.16-13.48.81-28.72.12-42.38,1.3-6.38,5.81-10.52,11.91-12.32h69.71c6.72,1.82,11.66,6.77,12.37,13.87-.78,13.01,1.22,27.58.04,40.41Z"/>
      <path class="cls-2" d="M252.75,196.49v44.07c-1.85,6.32-6.34,11.07-13.07,11.97l-67.27.06c-7.22-.75-12.88-6.33-13.7-13.55.49-13.01-1.04-27.07-.13-39.97.58-8.33,6.22-14.35,14.62-15.02,21.07-1.67,44.37,1.24,65.67.06,7.1.71,12.05,5.66,13.87,12.37Z"/>
      <path class="cls-2" d="M141.18,241.36c-1.53,6.11-6.96,10.61-13.21,11.23l-66.91-.02c-7.1-.77-12.64-6.3-13.44-13.4l.02-92.95c.94-7.06,6.45-12.46,13.53-13.31l66.39-.11c6.54.6,11.87,4.89,13.63,11.21,1,32.29,1,65.07,0,97.36Z"/>
    </g>
  </g>
  <g id="Calque_8" data-name="Calque 8">
    <rect class="cls-1" width="300" height="300"/>
  </g>
</svg>
