<?xml version="1.0" encoding="UTF-8"?>
<svg id="Calque_2" data-name="Calque 2" xmlns="http://www.w3.org/2000/svg" viewBox="0 0 300 300">
  <defs>
    <style>
      .cls-1 {
        fill: none;
      }

      .cls-2 {
        fill: #f2f2f2;
      }
    </style>
  </defs>
  <g id="Calque_8" data-name="Calque 8">
    <g>
      <g>
        <path class="cls-2" d="M118.42,139.93c-.51,2.66.3,5.39.42,7.91,1.06,23.18,2.09,46.32,3.16,69.49.32,6.88,1.88,16.66,1.33,23.23-.35,4.15-3.15,8.55-6.94,10.41-4.13,2.04-17.86,2-21.94-.16-4.08-2.15-6.41-6.62-6.73-11.1l5.07-99.55c-25.9-9.19-27.6-38.64-19.68-61.31,8.61-24.65,31.9-45.2,53.94-19.65,18.59,21.55,24.66,69.66-8.63,80.73Z"/>
        <path class="cls-2" d="M229.84,109.48c-.79,9.66-6.6,19.73-14.19,25.55-2.94,2.25-6.37,3.66-9.49,5.6l1.73,40.61c1.21,15.04,1.64,30.14,2.28,45.23.44,10.16,3.78,24.66-11.15,25.82-10.24.8-21.76.84-23.5-11.73l4.97-99.56c-.23-1.26-4.84-2.95-6.24-3.81-27.96-17.01-14.25-55.91-17.54-83.03,1.17-7.99,11.34-9.14,14.43-1.59l.26,46.81c.05,2.69,3.54,6.67,6.13,6.67h8.45v-53.23c0-.13,1.12-1.95,1.37-2.28,3.09-4.11,8.78-4.11,11.88,0,.26.34,1.37,2.15,1.37,2.28v53.23h8.45c2.59,0,6.08-3.98,6.13-6.67l.15-46.46c2.72-7.59,12.71-7.13,14.53.8-1.1,18.09,1.45,37.87-.02,55.75Z"/>
      </g>
      <rect class="cls-1" width="300" height="300"/>
    </g>
  </g>
</svg>
