<?xml version="1.0" encoding="UTF-8"?>
<svg id="Calque_2" data-name="Calque 2" xmlns="http://www.w3.org/2000/svg" viewBox="0 0 300 300">
  <defs>
    <style>
      .cls-1 {
        fill: none;
      }

      .cls-2 {
        fill: #f2f2f2;
      }
    </style>
  </defs>
  <g id="Calque_8" data-name="Calque 8">
    <g>
      <path class="cls-2" d="M246.54,80.02c-.33-2.4-2.34-4.45-4.74-4.8h-34.45c-.07-6.35-.03-12.67.27-18.89-.17-3.2-2.87-5.53-6.02-5.59l-104.41.12c-2.47.42-4.58,2.58-4.87,5.07.3,6.35.34,12.8.25,19.29h-34.45c-2.03,0-4.64,2.7-4.73,4.8.42,18.21-2.47,38.63,7.09,55.03,3.91,6.71,10.01,11.99,16.93,15.67h0c.11.07.23.13.36.19,1.12.58,2.26,1.13,3.41,1.63.4.18.81.37,1.25.57,6.78,3.06,13.56,5.49,20.28,7.41,6.82,10.98,16.52,20.22,27.76,26.03,1.88.98,5.22,2.49,8.7,3.83.35,2.43.49,5.04.3,7.81-.06.91-.16,1.8-.28,2.65-1.82,15.93-13.16,29.51-28.62,33.79-1.58.44-8.05,1.41-8.61,1.96-.79.77-.81,11.84,0,12.66h96c.81-.82.79-11.89,0-12.66-.57-.55-7.01-1.51-8.61-1.96-15.44-4.34-26.8-17.84-28.62-33.79-.15-1.35-.25-2.78-.26-4.3-.02-2.2.15-4.27.43-6.2,15.17-5.51,28.27-16.61,36.72-30.46,10.21-2.75,16.61-5.39,17.59-5.81,0,0,0,0,0,0,2.43-.99,5.34-2.38,7.25-3.34h0c.85-.43,1.51-.77,1.83-.96,25.87-15.17,22.19-43.66,22.23-69.75ZM77.45,138.82c-11.24-8.17-13.58-21.19-14.16-34.35-.28-6.26.24-12.61.02-18.88h29.07c-.37,14.58-.93,29.23-.06,43.34.36,5.75,1.54,11.44,3.42,16.92-7.31-2.36-13.45-4.86-18.28-7.03ZM222.49,138.82c-4.75,2.14-10.9,4.65-18.25,7.02,1.85-5.45,3.02-11.12,3.38-16.91.88-14.12.3-28.77-.06-43.34h29.07c-.37,18.3,2.59,41.08-14.14,53.24Z"/>
      <rect class="cls-1" width="300" height="300"/>
    </g>
  </g>
</svg>
