<?xml version="1.0" encoding="UTF-8"?>
<svg id="Calque_2" data-name="Calque 2" xmlns="http://www.w3.org/2000/svg" viewBox="0 0 300 300">
  <defs>
    <style>
      .cls-1 {
        fill: none;
      }

      .cls-2 {
        fill: #f2f2f2;
      }
    </style>
  </defs>
  <g id="Calque_8" data-name="Calque 8">
    <g>
      <g>
        <path class="cls-2" d="M251.65,117.06v4.76c-1.08,1.54-1.37,3.21-2.57,4.77-4.61,6.01-13.04,5.91-18.29.8l-58.37-58.38c-10.14-11.04,2.98-26.79,15.49-18.27,6,5.75,11.61,12.12,17.87,17.49,4.49-3.17,7.83-8.27,12.11-11.73,2.7-2.18,5.08-3.11,8.33-1.17,5.1,6.12,13.36,11.89,18.09,18.04,1.77,2.3,2.01,4.66.36,7.13-1.35,1.88-13.41,12.73-13.25,13.67l17.84,17.92,2.39,4.96Z"/>
        <path class="cls-2" d="M121.39,251.68h-4.76l-4.57-2.38c-6-5.75-11.61-12.11-17.87-17.49-4.4,3.18-7.74,8.04-11.9,11.54-2.94,2.47-5.54,3.62-8.95.99-6.15-4.73-11.93-12.99-18.04-18.1-1.3-2.06-1.35-4.35-.15-6.47l13.41-13.62-.35-.75-17.49-17.46c-7.57-10.82,4.54-24.11,16.01-17.2,21.21,20.27,42,41.2,62.38,62.31,4.91,7.33.65,16.72-7.71,18.63Z"/>
        <path class="cls-2" d="M214.92,161.93l-76.66-76.63c-6.8-7.25-2-19.68,8.08-20.16,3-.14,6.14.92,8.42,2.87l77.23,77.24c8.76,11.6-5.27,25.89-17.07,16.68Z"/>
        <path class="cls-2" d="M145.43,232.22l-77.45-77.42c-5.67-6.21-1.85-17.96,6.45-19.37,4.21-.71,7.58.26,10.83,2.88l76.44,76.44c9.57,11.72-4.35,26.18-16.28,17.47Z"/>
        <polygon class="cls-2" points="180.53 144.61 144.28 180.57 119.43 155.44 155.4 119.48 180.53 144.61"/>
      </g>
      <rect class="cls-1" width="300" height="300"/>
    </g>
  </g>
</svg>
